<?xml version="1.0" encoding="utf-8" standalone="no"?>
<!DOCTYPE svg PUBLIC "-//W3C//DTD SVG 1.1//EN"
  "http://www.w3.org/Graphics/SVG/1.1/DTD/svg11.dtd">
<svg xmlns:xlink="http://www.w3.org/1999/xlink" width="576pt" height="360pt" viewBox="0 0 576 360" xmlns="http://www.w3.org/2000/svg" version="1.1">
 <metadata>
  <rdf:RDF xmlns:dc="http://purl.org/dc/elements/1.1/" xmlns:cc="http://creativecommons.org/ns#" xmlns:rdf="http://www.w3.org/1999/02/22-rdf-syntax-ns#">
   <cc:Work>
    <dc:type rdf:resource="http://purl.org/dc/dcmitype/StillImage"/>
    <dc:date>2026-03-19T11:48:07.168541</dc:date>
    <dc:format>image/svg+xml</dc:format>
    <dc:source>University of Cincinnati — Dept. of Computer Science</dc:source>
    <dc:creator>
     <cc:Agent>
      <dc:title>SPINK7-KLK5 MD Pipeline</dc:title>
     </cc:Agent>
    </dc:creator>
   </cc:Work>
  </rdf:RDF>
 </metadata>
 <defs>
  <style type="text/css">*{stroke-linejoin: round; stroke-linecap: butt}</style>
 </defs>
 <g id="figure_1">
  <g id="patch_1">
   <path d="M 0 360 
L 576 360 
L 576 0 
L 0 0 
z
" style="fill: #ffffff"/>
  </g>
  <g id="axes_1">
   <g id="patch_2">
    <path d="M 36.403365 326.64351 
L 572.99976 326.64351 
L 572.99976 18.118365 
L 36.403365 18.118365 
z
" style="fill: #ffffff"/>
   </g>
   <g id="FillBetweenPolyCollection_1">
    <defs>
     <path id="mef2266d540" d="M 60.79411 -327.857765 
L 60.79411 -316.753988 
L 63.245441 -293.60967 
L 65.696773 -272.334142 
L 68.148104 -252.632936 
L 70.599435 -234.401622 
L 73.050766 -217.542395 
L 75.502097 -201.963658 
L 77.953428 -187.579641 
L 80.40476 -174.310038 
L 82.856091 -162.079663 
L 85.307422 -150.818135 
L 87.758753 -140.459578 
L 90.210084 -130.942336 
L 92.661416 -122.208715 
L 95.112747 -114.204732 
L 97.564078 -106.879881 
L 100.015409 -100.18692 
L 102.46674 -94.081664 
L 104.918071 -88.522792 
L 107.369403 -83.471667 
L 109.820734 -78.892171 
L 112.272065 -74.750542 
L 114.723396 -71.015226 
L 117.174727 -67.656741 
L 119.626059 -64.647541 
L 122.07739 -61.961898 
L 124.528721 -59.575784 
L 126.980052 -57.466764 
L 129.431383 -55.613894 
L 131.882714 -53.997626 
L 134.334046 -52.599721 
L 136.785377 -51.403162 
L 139.236708 -50.39208 
L 141.688039 -49.551674 
L 144.13937 -48.86815 
L 146.590701 -48.32865 
L 149.042033 -47.921195 
L 151.493364 -47.634627 
L 153.944695 -47.458556 
L 156.396026 -47.383311 
L 158.847357 -47.38036 
L 161.298689 -47.447636 
L 163.75002 -47.593607 
L 166.201351 -47.810822 
L 168.652682 -48.092355 
L 171.104013 -48.431777 
L 173.555344 -48.823116 
L 176.006676 -49.260834 
L 178.458007 -49.739796 
L 180.909338 -50.255243 
L 183.360669 -50.802774 
L 185.812 -51.378315 
L 188.263332 -51.978108 
L 190.714663 -52.598687 
L 193.165994 -53.236862 
L 195.617325 -53.889708 
L 198.068656 -54.554547 
L 200.519987 -55.228939 
L 202.971319 -55.910673 
L 205.42265 -56.59776 
L 207.873981 -57.288427 
L 210.325312 -57.981111 
L 212.776643 -58.67446 
L 215.227974 -59.36733 
L 217.679306 -60.058791 
L 220.130637 -60.748121 
L 222.581968 -61.434815 
L 225.033299 -62.118588 
L 227.48463 -62.799375 
L 229.935962 -63.477331 
L 232.387293 -64.152835 
L 234.838624 -64.826482 
L 237.289955 -65.499075 
L 239.741286 -66.171614 
L 242.192617 -66.84527 
L 244.643949 -67.52136 
L 247.09528 -68.20131 
L 249.546611 -68.886609 
L 251.997942 -69.578755 
L 254.449273 -70.279189 
L 256.900605 -70.989225 
L 259.351936 -71.709974 
L 261.803267 -72.44226 
L 264.254598 -73.18654 
L 266.705929 -73.942821 
L 269.15726 -74.710589 
L 271.608592 -75.488745 
L 274.059923 -76.275553 
L 276.511254 -77.068617 
L 278.962585 -77.864869 
L 281.413916 -78.660592 
L 283.865247 -79.451464 
L 286.316579 -80.232632 
L 288.76791 -80.998821 
L 291.219241 -81.744458 
L 293.670572 -82.463824 
L 296.121903 -83.15122 
L 298.573235 -83.801149 
L 301.024566 -84.408492 
L 303.475897 -84.968686 
L 305.927228 -85.477889 
L 308.378559 -85.933115 
L 310.82989 -86.332355 
L 313.281222 -86.674654 
L 315.732553 -86.960152 
L 318.183884 -87.190089 
L 320.635215 -87.366766 
L 323.086546 -87.493468 
L 325.537878 -87.574354 
L 327.989209 -87.611236 
L 330.44054 -87.601687 
L 332.891871 -87.564976 
L 335.343202 -87.507202 
L 337.794533 -87.434417 
L 340.245865 -87.352458 
L 342.697196 -87.266801 
L 345.148527 -87.18243 
L 347.599858 -87.103744 
L 350.051189 -87.034483 
L 352.50252 -86.977689 
L 354.953852 -86.935695 
L 357.405183 -86.910138 
L 359.856514 -86.901995 
L 362.307845 -86.911637 
L 364.759176 -86.938899 
L 367.210508 -86.983155 
L 369.661839 -87.041512 
L 372.11317 -87.110859 
L 374.564501 -87.19393 
L 377.015832 -87.289133 
L 379.467163 -87.394781 
L 381.918495 -87.509155 
L 384.369826 -87.630558 
L 386.821157 -87.757355 
L 389.272488 -87.888012 
L 391.723819 -88.021112 
L 394.175151 -88.155376 
L 396.626482 -88.28967 
L 399.077813 -88.423005 
L 401.529144 -88.554537 
L 403.980475 -88.683556 
L 406.431806 -88.809482 
L 408.883138 -88.93185 
L 411.334469 -89.050297 
L 413.7858 -89.164554 
L 416.237131 -89.274431 
L 418.688462 -89.379806 
L 421.139793 -89.480617 
L 423.591125 -89.576846 
L 426.042456 -89.668519 
L 428.493787 -89.755692 
L 430.945118 -89.838448 
L 433.396449 -89.91689 
L 435.847781 -89.991137 
L 438.299112 -90.06132 
L 440.750443 -90.127581 
L 443.201774 -90.190064 
L 445.653105 -90.248921 
L 448.104436 -90.304304 
L 450.555768 -90.356367 
L 453.007099 -90.405263 
L 455.45843 -90.451144 
L 457.909761 -90.494158 
L 460.361092 -90.534453 
L 462.812424 -90.57217 
L 465.263755 -90.60745 
L 467.715086 -90.640427 
L 470.166417 -90.671232 
L 472.617748 -90.699989 
L 475.069079 -90.726819 
L 477.520411 -90.751838 
L 479.971742 -90.775157 
L 482.423073 -90.796881 
L 484.874404 -90.817111 
L 487.325735 -90.835942 
L 489.777066 -90.853464 
L 492.228398 -90.869764 
L 494.679729 -90.884922 
L 497.13106 -90.899016 
L 499.582391 -90.912116 
L 502.033722 -90.924291 
L 504.485054 -90.935604 
L 506.936385 -90.946115 
L 509.387716 -90.95588 
L 511.839047 -90.964951 
L 514.290378 -90.973377 
L 516.741709 -90.981203 
L 519.193041 -90.988473 
L 521.644372 -90.995226 
L 524.095703 -91.001498 
L 526.547034 -91.007325 
L 528.998365 -91.012738 
L 531.449697 -91.017767 
L 533.901028 -91.022439 
L 536.352359 -91.026781 
L 538.80369 -91.030815 
L 541.255021 -91.034564 
L 543.706352 -91.038049 
L 546.157684 -91.041287 
L 548.609015 -91.04428 
L 548.609015 -92.824303 
L 548.609015 -92.824303 
L 546.157684 -92.821639 
L 543.706352 -92.81882 
L 541.255021 -92.815817 
L 538.80369 -92.812619 
L 536.352359 -92.809217 
L 533.901028 -92.805598 
L 531.449697 -92.801752 
L 528.998365 -92.797667 
L 526.547034 -92.793332 
L 524.095703 -92.788734 
L 521.644372 -92.78386 
L 519.193041 -92.778699 
L 516.741709 -92.773237 
L 514.290378 -92.767462 
L 511.839047 -92.761359 
L 509.387716 -92.754917 
L 506.936385 -92.748122 
L 504.485054 -92.740961 
L 502.033722 -92.73342 
L 499.582391 -92.725487 
L 497.13106 -92.717148 
L 494.679729 -92.708391 
L 492.228398 -92.699202 
L 489.777066 -92.68957 
L 487.325735 -92.679482 
L 484.874404 -92.668926 
L 482.423073 -92.65789 
L 479.971742 -92.646361 
L 477.520411 -92.634329 
L 475.069079 -92.621781 
L 472.617748 -92.608706 
L 470.166417 -92.595091 
L 467.715086 -92.580925 
L 465.263755 -92.566195 
L 462.812424 -92.550888 
L 460.361092 -92.534989 
L 457.909761 -92.518486 
L 455.45843 -92.50136 
L 453.007099 -92.483595 
L 450.555768 -92.465173 
L 448.104436 -92.446072 
L 445.653105 -92.42627 
L 443.201774 -92.405744 
L 440.750443 -92.384466 
L 438.299112 -92.36241 
L 435.847781 -92.339546 
L 433.396449 -92.315846 
L 430.945118 -92.29128 
L 428.493787 -92.265824 
L 426.042456 -92.239455 
L 423.591125 -92.212158 
L 421.139793 -92.18393 
L 418.688462 -92.154782 
L 416.237131 -92.124747 
L 413.7858 -92.093883 
L 411.334469 -92.062286 
L 408.883138 -92.030092 
L 406.431806 -91.997493 
L 403.980475 -91.964744 
L 401.529144 -91.932176 
L 399.077813 -91.900205 
L 396.626482 -91.869345 
L 394.175151 -91.840216 
L 391.723819 -91.813554 
L 389.272488 -91.790212 
L 386.821157 -91.771161 
L 384.369826 -91.757489 
L 381.918495 -91.750384 
L 379.467163 -91.751116 
L 377.015832 -91.761011 
L 374.564501 -91.78141 
L 372.11317 -91.813624 
L 369.661839 -91.858877 
L 367.210508 -91.922401 
L 364.759176 -92.003112 
L 362.307845 -92.099515 
L 359.856514 -92.211587 
L 357.405183 -92.338811 
L 354.953852 -92.480102 
L 352.50252 -92.633748 
L 350.051189 -92.797364 
L 347.599858 -92.967872 
L 345.148527 -93.141495 
L 342.697196 -93.313786 
L 340.245865 -93.479686 
L 337.794533 -93.633605 
L 335.343202 -93.769536 
L 332.891871 -93.881195 
L 330.44054 -93.962179 
L 327.989209 -94.006142 
L 325.537878 -94.020288 
L 323.086546 -93.990871 
L 320.635215 -93.909495 
L 318.183884 -93.771553 
L 315.732553 -93.573303 
L 313.281222 -93.311989 
L 310.82989 -92.985931 
L 308.378559 -92.594585 
L 305.927228 -92.138551 
L 303.475897 -91.619547 
L 301.024566 -91.040344 
L 298.573235 -90.404661 
L 296.121903 -89.717033 
L 293.670572 -88.982654 
L 291.219241 -88.207204 
L 288.76791 -87.396664 
L 286.316579 -86.557135 
L 283.865247 -85.694664 
L 281.413916 -84.815079 
L 278.962585 -83.92385 
L 276.511254 -83.025974 
L 274.059923 -82.125879 
L 271.608592 -81.227369 
L 269.15726 -80.333586 
L 266.705929 -79.447005 
L 264.254598 -78.569451 
L 261.803267 -77.702139 
L 259.351936 -76.845725 
L 256.900605 -76.000376 
L 254.449273 -75.165844 
L 251.997942 -74.341548 
L 249.546611 -73.52665 
L 247.09528 -72.720136 
L 244.643949 -71.920885 
L 242.192617 -71.127738 
L 239.741286 -70.339552 
L 237.289955 -69.555251 
L 234.838624 -68.773861 
L 232.387293 -67.994549 
L 229.935962 -67.216638 
L 227.48463 -66.43963 
L 225.033299 -65.663215 
L 222.581968 -64.887274 
L 220.130637 -64.111888 
L 217.679306 -63.337333 
L 215.227974 -62.564082 
L 212.776643 -61.792803 
L 210.325312 -61.024354 
L 207.873981 -60.259787 
L 205.42265 -59.500343 
L 202.971319 -58.74746 
L 200.519987 -58.002766 
L 198.068656 -57.268093 
L 195.617325 -56.545479 
L 193.165994 -55.837176 
L 190.714663 -55.145662 
L 188.263332 -54.473651 
L 185.812 -53.824109 
L 183.360669 -53.200266 
L 180.909338 -52.605637 
L 178.458007 -52.044036 
L 176.006676 -51.519603 
L 173.555344 -51.036819 
L 171.104013 -50.600536 
L 168.652682 -50.216 
L 166.201351 -49.888877 
L 163.75002 -49.625287 
L 161.298689 -49.431832 
L 158.847357 -49.315632 
L 156.396026 -49.300844 
L 153.944695 -49.402282 
L 151.493364 -49.609578 
L 149.042033 -49.932587 
L 146.590701 -50.381909 
L 144.13937 -50.968937 
L 141.688039 -51.705913 
L 139.236708 -52.605985 
L 136.785377 -53.683271 
L 134.334046 -54.952923 
L 131.882714 -56.431199 
L 129.431383 -58.135537 
L 126.980052 -60.084637 
L 124.528721 -62.298546 
L 122.07739 -64.798747 
L 119.626059 -67.608258 
L 117.174727 -70.751739 
L 114.723396 -74.255594 
L 112.272065 -78.1481 
L 109.820734 -82.459522 
L 107.369403 -87.222256 
L 104.918071 -92.470964 
L 102.46674 -98.242734 
L 100.015409 -104.577237 
L 97.564078 -111.5169 
L 95.112747 -119.107096 
L 92.661416 -127.396332 
L 90.210084 -136.436469 
L 87.758753 -146.282934 
L 85.307422 -156.99497 
L 82.856091 -168.635879 
L 80.40476 -181.2733 
L 77.953428 -194.979493 
L 75.502097 -209.831648 
L 73.050766 -225.912214 
L 70.599435 -243.309241 
L 68.148104 -262.116762 
L 65.696773 -282.435179 
L 63.245441 -304.371691 
L 60.79411 -327.857765 
z
"/>
    </defs>
    <g clip-path="url(#pb6dc5ad2fd)">
     <use xlink:href="#mef2266d540" x="0" y="360" style="fill: #328cc1; fill-opacity: 0.25"/>
    </g>
   </g>
   <g id="matplotlib.axis_1">
    <g id="xtick_1">
     <g id="line2d_1">
      <path d="M 60.79411 326.64351 
L 60.79411 18.118365 
" clip-path="url(#pb6dc5ad2fd)" style="fill: none; stroke: #b0b0b0; stroke-opacity: 0.2; stroke-width: 0.8; stroke-linecap: square"/>
     </g>
     <g id="line2d_2">
      <defs>
       <path id="m1761599c0b" d="M 0 0 
L 0 3.5 
" style="stroke: #000000; stroke-width: 0.8"/>
      </defs>
      <g>
       <use xlink:href="#m1761599c0b" x="60.79411" y="326.64351" style="stroke: #000000; stroke-width: 0.8"/>
      </g>
     </g>
     <g id="text_1">
      <!-- 1.5 -->
      <g transform="translate(52.842548 341.241947) scale(0.1 -0.1)">
       <defs>
        <path id="DejaVuSans-31" d="M 794 531 
L 1825 531 
L 1825 4091 
L 703 3866 
L 703 4441 
L 1819 4666 
L 2450 4666 
L 2450 531 
L 3481 531 
L 3481 0 
L 794 0 
L 794 531 
z
" transform="scale(0.015625)"/>
        <path id="DejaVuSans-2e" d="M 684 794 
L 1344 794 
L 1344 0 
L 684 0 
L 684 794 
z
" transform="scale(0.015625)"/>
        <path id="DejaVuSans-35" d="M 691 4666 
L 3169 4666 
L 3169 4134 
L 1269 4134 
L 1269 2991 
Q 1406 3038 1543 3061 
Q 1681 3084 1819 3084 
Q 2600 3084 3056 2656 
Q 3513 2228 3513 1497 
Q 3513 744 3044 326 
Q 2575 -91 1722 -91 
Q 1428 -91 1123 -41 
Q 819 9 494 109 
L 494 744 
Q 775 591 1075 516 
Q 1375 441 1709 441 
Q 2250 441 2565 725 
Q 2881 1009 2881 1497 
Q 2881 1984 2565 2268 
Q 2250 2553 1709 2553 
Q 1456 2553 1204 2497 
Q 953 2441 691 2322 
L 691 4666 
z
" transform="scale(0.015625)"/>
       </defs>
       <use xlink:href="#DejaVuSans-31"/>
       <use xlink:href="#DejaVuSans-2e" transform="translate(63.623047 0)"/>
       <use xlink:href="#DejaVuSans-35" transform="translate(95.410156 0)"/>
      </g>
     </g>
    </g>
    <g id="xtick_2">
     <g id="line2d_3">
      <path d="M 158.357091 326.64351 
L 158.357091 18.118365 
" clip-path="url(#pb6dc5ad2fd)" style="fill: none; stroke: #b0b0b0; stroke-opacity: 0.2; stroke-width: 0.8; stroke-linecap: square"/>
     </g>
     <g id="line2d_4">
      <g>
       <use xlink:href="#m1761599c0b" x="158.357091" y="326.64351" style="stroke: #000000; stroke-width: 0.8"/>
      </g>
     </g>
     <g id="text_2">
      <!-- 2.0 -->
      <g transform="translate(150.405529 341.241947) scale(0.1 -0.1)">
       <defs>
        <path id="DejaVuSans-32" d="M 1228 531 
L 3431 531 
L 3431 0 
L 469 0 
L 469 531 
Q 828 903 1448 1529 
Q 2069 2156 2228 2338 
Q 2531 2678 2651 2914 
Q 2772 3150 2772 3378 
Q 2772 3750 2511 3984 
Q 2250 4219 1831 4219 
Q 1534 4219 1204 4116 
Q 875 4013 500 3803 
L 500 4441 
Q 881 4594 1212 4672 
Q 1544 4750 1819 4750 
Q 2544 4750 2975 4387 
Q 3406 4025 3406 3419 
Q 3406 3131 3298 2873 
Q 3191 2616 2906 2266 
Q 2828 2175 2409 1742 
Q 1991 1309 1228 531 
z
" transform="scale(0.015625)"/>
        <path id="DejaVuSans-30" d="M 2034 4250 
Q 1547 4250 1301 3770 
Q 1056 3291 1056 2328 
Q 1056 1369 1301 889 
Q 1547 409 2034 409 
Q 2525 409 2770 889 
Q 3016 1369 3016 2328 
Q 3016 3291 2770 3770 
Q 2525 4250 2034 4250 
z
M 2034 4750 
Q 2819 4750 3233 4129 
Q 3647 3509 3647 2328 
Q 3647 1150 3233 529 
Q 2819 -91 2034 -91 
Q 1250 -91 836 529 
Q 422 1150 422 2328 
Q 422 3509 836 4129 
Q 1250 4750 2034 4750 
z
" transform="scale(0.015625)"/>
       </defs>
       <use xlink:href="#DejaVuSans-32"/>
       <use xlink:href="#DejaVuSans-2e" transform="translate(63.623047 0)"/>
       <use xlink:href="#DejaVuSans-30" transform="translate(95.410156 0)"/>
      </g>
     </g>
    </g>
    <g id="xtick_3">
     <g id="line2d_5">
      <path d="M 255.920072 326.64351 
L 255.920072 18.118365 
" clip-path="url(#pb6dc5ad2fd)" style="fill: none; stroke: #b0b0b0; stroke-opacity: 0.2; stroke-width: 0.8; stroke-linecap: square"/>
     </g>
     <g id="line2d_6">
      <g>
       <use xlink:href="#m1761599c0b" x="255.920072" y="326.64351" style="stroke: #000000; stroke-width: 0.8"/>
      </g>
     </g>
     <g id="text_3">
      <!-- 2.5 -->
      <g transform="translate(247.96851 341.241947) scale(0.1 -0.1)">
       <use xlink:href="#DejaVuSans-32"/>
       <use xlink:href="#DejaVuSans-2e" transform="translate(63.623047 0)"/>
       <use xlink:href="#DejaVuSans-35" transform="translate(95.410156 0)"/>
      </g>
     </g>
    </g>
    <g id="xtick_4">
     <g id="line2d_7">
      <path d="M 353.483053 326.64351 
L 353.483053 18.118365 
" clip-path="url(#pb6dc5ad2fd)" style="fill: none; stroke: #b0b0b0; stroke-opacity: 0.2; stroke-width: 0.8; stroke-linecap: square"/>
     </g>
     <g id="line2d_8">
      <g>
       <use xlink:href="#m1761599c0b" x="353.483053" y="326.64351" style="stroke: #000000; stroke-width: 0.8"/>
      </g>
     </g>
     <g id="text_4">
      <!-- 3.0 -->
      <g transform="translate(345.53149 341.241947) scale(0.1 -0.1)">
       <defs>
        <path id="DejaVuSans-33" d="M 2597 2516 
Q 3050 2419 3304 2112 
Q 3559 1806 3559 1356 
Q 3559 666 3084 287 
Q 2609 -91 1734 -91 
Q 1441 -91 1130 -33 
Q 819 25 488 141 
L 488 750 
Q 750 597 1062 519 
Q 1375 441 1716 441 
Q 2309 441 2620 675 
Q 2931 909 2931 1356 
Q 2931 1769 2642 2001 
Q 2353 2234 1838 2234 
L 1294 2234 
L 1294 2753 
L 1863 2753 
Q 2328 2753 2575 2939 
Q 2822 3125 2822 3475 
Q 2822 3834 2567 4026 
Q 2313 4219 1838 4219 
Q 1578 4219 1281 4162 
Q 984 4106 628 3988 
L 628 4550 
Q 988 4650 1302 4700 
Q 1616 4750 1894 4750 
Q 2613 4750 3031 4423 
Q 3450 4097 3450 3541 
Q 3450 3153 3228 2886 
Q 3006 2619 2597 2516 
z
" transform="scale(0.015625)"/>
       </defs>
       <use xlink:href="#DejaVuSans-33"/>
       <use xlink:href="#DejaVuSans-2e" transform="translate(63.623047 0)"/>
       <use xlink:href="#DejaVuSans-30" transform="translate(95.410156 0)"/>
      </g>
     </g>
    </g>
    <g id="xtick_5">
     <g id="line2d_9">
      <path d="M 451.046034 326.64351 
L 451.046034 18.118365 
" clip-path="url(#pb6dc5ad2fd)" style="fill: none; stroke: #b0b0b0; stroke-opacity: 0.2; stroke-width: 0.8; stroke-linecap: square"/>
     </g>
     <g id="line2d_10">
      <g>
       <use xlink:href="#m1761599c0b" x="451.046034" y="326.64351" style="stroke: #000000; stroke-width: 0.8"/>
      </g>
     </g>
     <g id="text_5">
      <!-- 3.5 -->
      <g transform="translate(443.094471 341.241947) scale(0.1 -0.1)">
       <use xlink:href="#DejaVuSans-33"/>
       <use xlink:href="#DejaVuSans-2e" transform="translate(63.623047 0)"/>
       <use xlink:href="#DejaVuSans-35" transform="translate(95.410156 0)"/>
      </g>
     </g>
    </g>
    <g id="xtick_6">
     <g id="line2d_11">
      <path d="M 548.609015 326.64351 
L 548.609015 18.118365 
" clip-path="url(#pb6dc5ad2fd)" style="fill: none; stroke: #b0b0b0; stroke-opacity: 0.2; stroke-width: 0.8; stroke-linecap: square"/>
     </g>
     <g id="line2d_12">
      <g>
       <use xlink:href="#m1761599c0b" x="548.609015" y="326.64351" style="stroke: #000000; stroke-width: 0.8"/>
      </g>
     </g>
     <g id="text_6">
      <!-- 4.0 -->
      <g transform="translate(540.657452 341.241947) scale(0.1 -0.1)">
       <defs>
        <path id="DejaVuSans-34" d="M 2419 4116 
L 825 1625 
L 2419 1625 
L 2419 4116 
z
M 2253 4666 
L 3047 4666 
L 3047 1625 
L 3713 1625 
L 3713 1100 
L 3047 1100 
L 3047 0 
L 2419 0 
L 2419 1100 
L 313 1100 
L 313 1709 
L 2253 4666 
z
" transform="scale(0.015625)"/>
       </defs>
       <use xlink:href="#DejaVuSans-34"/>
       <use xlink:href="#DejaVuSans-2e" transform="translate(63.623047 0)"/>
       <use xlink:href="#DejaVuSans-30" transform="translate(95.410156 0)"/>
      </g>
     </g>
    </g>
    <g id="text_7">
     <!-- COM Distance (nm) -->
     <g transform="translate(255.978906 354.920073) scale(0.1 -0.1)">
      <defs>
       <path id="DejaVuSans-43" d="M 4122 4306 
L 4122 3641 
Q 3803 3938 3442 4084 
Q 3081 4231 2675 4231 
Q 1875 4231 1450 3742 
Q 1025 3253 1025 2328 
Q 1025 1406 1450 917 
Q 1875 428 2675 428 
Q 3081 428 3442 575 
Q 3803 722 4122 1019 
L 4122 359 
Q 3791 134 3420 21 
Q 3050 -91 2638 -91 
Q 1578 -91 968 557 
Q 359 1206 359 2328 
Q 359 3453 968 4101 
Q 1578 4750 2638 4750 
Q 3056 4750 3426 4639 
Q 3797 4528 4122 4306 
z
" transform="scale(0.015625)"/>
       <path id="DejaVuSans-4f" d="M 2522 4238 
Q 1834 4238 1429 3725 
Q 1025 3213 1025 2328 
Q 1025 1447 1429 934 
Q 1834 422 2522 422 
Q 3209 422 3611 934 
Q 4013 1447 4013 2328 
Q 4013 3213 3611 3725 
Q 3209 4238 2522 4238 
z
M 2522 4750 
Q 3503 4750 4090 4092 
Q 4678 3434 4678 2328 
Q 4678 1225 4090 567 
Q 3503 -91 2522 -91 
Q 1538 -91 948 565 
Q 359 1222 359 2328 
Q 359 3434 948 4092 
Q 1538 4750 2522 4750 
z
" transform="scale(0.015625)"/>
       <path id="DejaVuSans-4d" d="M 628 4666 
L 1569 4666 
L 2759 1491 
L 3956 4666 
L 4897 4666 
L 4897 0 
L 4281 0 
L 4281 4097 
L 3078 897 
L 2444 897 
L 1241 4097 
L 1241 0 
L 628 0 
L 628 4666 
z
" transform="scale(0.015625)"/>
       <path id="DejaVuSans-20" transform="scale(0.015625)"/>
       <path id="DejaVuSans-44" d="M 1259 4147 
L 1259 519 
L 2022 519 
Q 2988 519 3436 956 
Q 3884 1394 3884 2338 
Q 3884 3275 3436 3711 
Q 2988 4147 2022 4147 
L 1259 4147 
z
M 628 4666 
L 1925 4666 
Q 3281 4666 3915 4102 
Q 4550 3538 4550 2338 
Q 4550 1131 3912 565 
Q 3275 0 1925 0 
L 628 0 
L 628 4666 
z
" transform="scale(0.015625)"/>
       <path id="DejaVuSans-69" d="M 603 3500 
L 1178 3500 
L 1178 0 
L 603 0 
L 603 3500 
z
M 603 4863 
L 1178 4863 
L 1178 4134 
L 603 4134 
L 603 4863 
z
" transform="scale(0.015625)"/>
       <path id="DejaVuSans-73" d="M 2834 3397 
L 2834 2853 
Q 2591 2978 2328 3040 
Q 2066 3103 1784 3103 
Q 1356 3103 1142 2972 
Q 928 2841 928 2578 
Q 928 2378 1081 2264 
Q 1234 2150 1697 2047 
L 1894 2003 
Q 2506 1872 2764 1633 
Q 3022 1394 3022 966 
Q 3022 478 2636 193 
Q 2250 -91 1575 -91 
Q 1294 -91 989 -36 
Q 684 19 347 128 
L 347 722 
Q 666 556 975 473 
Q 1284 391 1588 391 
Q 1994 391 2212 530 
Q 2431 669 2431 922 
Q 2431 1156 2273 1281 
Q 2116 1406 1581 1522 
L 1381 1569 
Q 847 1681 609 1914 
Q 372 2147 372 2553 
Q 372 3047 722 3315 
Q 1072 3584 1716 3584 
Q 2034 3584 2315 3537 
Q 2597 3491 2834 3397 
z
" transform="scale(0.015625)"/>
       <path id="DejaVuSans-74" d="M 1172 4494 
L 1172 3500 
L 2356 3500 
L 2356 3053 
L 1172 3053 
L 1172 1153 
Q 1172 725 1289 603 
Q 1406 481 1766 481 
L 2356 481 
L 2356 0 
L 1766 0 
Q 1100 0 847 248 
Q 594 497 594 1153 
L 594 3053 
L 172 3053 
L 172 3500 
L 594 3500 
L 594 4494 
L 1172 4494 
z
" transform="scale(0.015625)"/>
       <path id="DejaVuSans-61" d="M 2194 1759 
Q 1497 1759 1228 1600 
Q 959 1441 959 1056 
Q 959 750 1161 570 
Q 1363 391 1709 391 
Q 2188 391 2477 730 
Q 2766 1069 2766 1631 
L 2766 1759 
L 2194 1759 
z
M 3341 1997 
L 3341 0 
L 2766 0 
L 2766 531 
Q 2569 213 2275 61 
Q 1981 -91 1556 -91 
Q 1019 -91 701 211 
Q 384 513 384 1019 
Q 384 1609 779 1909 
Q 1175 2209 1959 2209 
L 2766 2209 
L 2766 2266 
Q 2766 2663 2505 2880 
Q 2244 3097 1772 3097 
Q 1472 3097 1187 3025 
Q 903 2953 641 2809 
L 641 3341 
Q 956 3463 1253 3523 
Q 1550 3584 1831 3584 
Q 2591 3584 2966 3190 
Q 3341 2797 3341 1997 
z
" transform="scale(0.015625)"/>
       <path id="DejaVuSans-6e" d="M 3513 2113 
L 3513 0 
L 2938 0 
L 2938 2094 
Q 2938 2591 2744 2837 
Q 2550 3084 2163 3084 
Q 1697 3084 1428 2787 
Q 1159 2491 1159 1978 
L 1159 0 
L 581 0 
L 581 3500 
L 1159 3500 
L 1159 2956 
Q 1366 3272 1645 3428 
Q 1925 3584 2291 3584 
Q 2894 3584 3203 3211 
Q 3513 2838 3513 2113 
z
" transform="scale(0.015625)"/>
       <path id="DejaVuSans-63" d="M 3122 3366 
L 3122 2828 
Q 2878 2963 2633 3030 
Q 2388 3097 2138 3097 
Q 1578 3097 1268 2742 
Q 959 2388 959 1747 
Q 959 1106 1268 751 
Q 1578 397 2138 397 
Q 2388 397 2633 464 
Q 2878 531 3122 666 
L 3122 134 
Q 2881 22 2623 -34 
Q 2366 -91 2075 -91 
Q 1284 -91 818 406 
Q 353 903 353 1747 
Q 353 2603 823 3093 
Q 1294 3584 2113 3584 
Q 2378 3584 2631 3529 
Q 2884 3475 3122 3366 
z
" transform="scale(0.015625)"/>
       <path id="DejaVuSans-65" d="M 3597 1894 
L 3597 1613 
L 953 1613 
Q 991 1019 1311 708 
Q 1631 397 2203 397 
Q 2534 397 2845 478 
Q 3156 559 3463 722 
L 3463 178 
Q 3153 47 2828 -22 
Q 2503 -91 2169 -91 
Q 1331 -91 842 396 
Q 353 884 353 1716 
Q 353 2575 817 3079 
Q 1281 3584 2069 3584 
Q 2775 3584 3186 3129 
Q 3597 2675 3597 1894 
z
M 3022 2063 
Q 3016 2534 2758 2815 
Q 2500 3097 2075 3097 
Q 1594 3097 1305 2825 
Q 1016 2553 972 2059 
L 3022 2063 
z
" transform="scale(0.015625)"/>
       <path id="DejaVuSans-28" d="M 1984 4856 
Q 1566 4138 1362 3434 
Q 1159 2731 1159 2009 
Q 1159 1288 1364 580 
Q 1569 -128 1984 -844 
L 1484 -844 
Q 1016 -109 783 600 
Q 550 1309 550 2009 
Q 550 2706 781 3412 
Q 1013 4119 1484 4856 
L 1984 4856 
z
" transform="scale(0.015625)"/>
       <path id="DejaVuSans-6d" d="M 3328 2828 
Q 3544 3216 3844 3400 
Q 4144 3584 4550 3584 
Q 5097 3584 5394 3201 
Q 5691 2819 5691 2113 
L 5691 0 
L 5113 0 
L 5113 2094 
Q 5113 2597 4934 2840 
Q 4756 3084 4391 3084 
Q 3944 3084 3684 2787 
Q 3425 2491 3425 1978 
L 3425 0 
L 2847 0 
L 2847 2094 
Q 2847 2600 2669 2842 
Q 2491 3084 2119 3084 
Q 1678 3084 1418 2786 
Q 1159 2488 1159 1978 
L 1159 0 
L 581 0 
L 581 3500 
L 1159 3500 
L 1159 2956 
Q 1356 3278 1631 3431 
Q 1906 3584 2284 3584 
Q 2666 3584 2933 3390 
Q 3200 3197 3328 2828 
z
" transform="scale(0.015625)"/>
       <path id="DejaVuSans-29" d="M 513 4856 
L 1013 4856 
Q 1481 4119 1714 3412 
Q 1947 2706 1947 2009 
Q 1947 1309 1714 600 
Q 1481 -109 1013 -844 
L 513 -844 
Q 928 -128 1133 580 
Q 1338 1288 1338 2009 
Q 1338 2731 1133 3434 
Q 928 4138 513 4856 
z
" transform="scale(0.015625)"/>
      </defs>
      <use xlink:href="#DejaVuSans-43"/>
      <use xlink:href="#DejaVuSans-4f" transform="translate(69.824219 0)"/>
      <use xlink:href="#DejaVuSans-4d" transform="translate(148.535156 0)"/>
      <use xlink:href="#DejaVuSans-20" transform="translate(234.814453 0)"/>
      <use xlink:href="#DejaVuSans-44" transform="translate(266.601562 0)"/>
      <use xlink:href="#DejaVuSans-69" transform="translate(343.603516 0)"/>
      <use xlink:href="#DejaVuSans-73" transform="translate(371.386719 0)"/>
      <use xlink:href="#DejaVuSans-74" transform="translate(423.486328 0)"/>
      <use xlink:href="#DejaVuSans-61" transform="translate(462.695312 0)"/>
      <use xlink:href="#DejaVuSans-6e" transform="translate(523.974609 0)"/>
      <use xlink:href="#DejaVuSans-63" transform="translate(587.353516 0)"/>
      <use xlink:href="#DejaVuSans-65" transform="translate(642.333984 0)"/>
      <use xlink:href="#DejaVuSans-20" transform="translate(703.857422 0)"/>
      <use xlink:href="#DejaVuSans-28" transform="translate(735.644531 0)"/>
      <use xlink:href="#DejaVuSans-6e" transform="translate(774.658203 0)"/>
      <use xlink:href="#DejaVuSans-6d" transform="translate(838.037109 0)"/>
      <use xlink:href="#DejaVuSans-29" transform="translate(935.449219 0)"/>
     </g>
    </g>
   </g>
   <g id="matplotlib.axis_2">
    <g id="ytick_1">
     <g id="line2d_13">
      <path d="M 36.403365 268.065709 
L 572.99976 268.065709 
" clip-path="url(#pb6dc5ad2fd)" style="fill: none; stroke: #b0b0b0; stroke-opacity: 0.2; stroke-width: 0.8; stroke-linecap: square"/>
     </g>
     <g id="line2d_14">
      <defs>
       <path id="m801b67dc00" d="M 0 0 
L -3.5 0 
" style="stroke: #000000; stroke-width: 0.8"/>
      </defs>
      <g>
       <use xlink:href="#m801b67dc00" x="36.403365" y="268.065709" style="stroke: #000000; stroke-width: 0.8"/>
      </g>
     </g>
     <g id="text_8">
      <!-- 0 -->
      <g transform="translate(23.040865 271.864928) scale(0.1 -0.1)">
       <use xlink:href="#DejaVuSans-30"/>
      </g>
     </g>
    </g>
    <g id="ytick_2">
     <g id="line2d_15">
      <path d="M 36.403365 208.822302 
L 572.99976 208.822302 
" clip-path="url(#pb6dc5ad2fd)" style="fill: none; stroke: #b0b0b0; stroke-opacity: 0.2; stroke-width: 0.8; stroke-linecap: square"/>
     </g>
     <g id="line2d_16">
      <g>
       <use xlink:href="#m801b67dc00" x="36.403365" y="208.822302" style="stroke: #000000; stroke-width: 0.8"/>
      </g>
     </g>
     <g id="text_9">
      <!-- 20 -->
      <g transform="translate(16.678365 212.621521) scale(0.1 -0.1)">
       <use xlink:href="#DejaVuSans-32"/>
       <use xlink:href="#DejaVuSans-30" transform="translate(63.623047 0)"/>
      </g>
     </g>
    </g>
    <g id="ytick_3">
     <g id="line2d_17">
      <path d="M 36.403365 149.578895 
L 572.99976 149.578895 
" clip-path="url(#pb6dc5ad2fd)" style="fill: none; stroke: #b0b0b0; stroke-opacity: 0.2; stroke-width: 0.8; stroke-linecap: square"/>
     </g>
     <g id="line2d_18">
      <g>
       <use xlink:href="#m801b67dc00" x="36.403365" y="149.578895" style="stroke: #000000; stroke-width: 0.8"/>
      </g>
     </g>
     <g id="text_10">
      <!-- 40 -->
      <g transform="translate(16.678365 153.378114) scale(0.1 -0.1)">
       <use xlink:href="#DejaVuSans-34"/>
       <use xlink:href="#DejaVuSans-30" transform="translate(63.623047 0)"/>
      </g>
     </g>
    </g>
    <g id="ytick_4">
     <g id="line2d_19">
      <path d="M 36.403365 90.335488 
L 572.99976 90.335488 
" clip-path="url(#pb6dc5ad2fd)" style="fill: none; stroke: #b0b0b0; stroke-opacity: 0.2; stroke-width: 0.8; stroke-linecap: square"/>
     </g>
     <g id="line2d_20">
      <g>
       <use xlink:href="#m801b67dc00" x="36.403365" y="90.335488" style="stroke: #000000; stroke-width: 0.8"/>
      </g>
     </g>
     <g id="text_11">
      <!-- 60 -->
      <g transform="translate(16.678365 94.134707) scale(0.1 -0.1)">
       <defs>
        <path id="DejaVuSans-36" d="M 2113 2584 
Q 1688 2584 1439 2293 
Q 1191 2003 1191 1497 
Q 1191 994 1439 701 
Q 1688 409 2113 409 
Q 2538 409 2786 701 
Q 3034 994 3034 1497 
Q 3034 2003 2786 2293 
Q 2538 2584 2113 2584 
z
M 3366 4563 
L 3366 3988 
Q 3128 4100 2886 4159 
Q 2644 4219 2406 4219 
Q 1781 4219 1451 3797 
Q 1122 3375 1075 2522 
Q 1259 2794 1537 2939 
Q 1816 3084 2150 3084 
Q 2853 3084 3261 2657 
Q 3669 2231 3669 1497 
Q 3669 778 3244 343 
Q 2819 -91 2113 -91 
Q 1303 -91 875 529 
Q 447 1150 447 2328 
Q 447 3434 972 4092 
Q 1497 4750 2381 4750 
Q 2619 4750 2861 4703 
Q 3103 4656 3366 4563 
z
" transform="scale(0.015625)"/>
       </defs>
       <use xlink:href="#DejaVuSans-36"/>
       <use xlink:href="#DejaVuSans-30" transform="translate(63.623047 0)"/>
      </g>
     </g>
    </g>
    <g id="ytick_5">
     <g id="line2d_21">
      <path d="M 36.403365 31.092081 
L 572.99976 31.092081 
" clip-path="url(#pb6dc5ad2fd)" style="fill: none; stroke: #b0b0b0; stroke-opacity: 0.2; stroke-width: 0.8; stroke-linecap: square"/>
     </g>
     <g id="line2d_22">
      <g>
       <use xlink:href="#m801b67dc00" x="36.403365" y="31.092081" style="stroke: #000000; stroke-width: 0.8"/>
      </g>
     </g>
     <g id="text_12">
      <!-- 80 -->
      <g transform="translate(16.678365 34.8913) scale(0.1 -0.1)">
       <defs>
        <path id="DejaVuSans-38" d="M 2034 2216 
Q 1584 2216 1326 1975 
Q 1069 1734 1069 1313 
Q 1069 891 1326 650 
Q 1584 409 2034 409 
Q 2484 409 2743 651 
Q 3003 894 3003 1313 
Q 3003 1734 2745 1975 
Q 2488 2216 2034 2216 
z
M 1403 2484 
Q 997 2584 770 2862 
Q 544 3141 544 3541 
Q 544 4100 942 4425 
Q 1341 4750 2034 4750 
Q 2731 4750 3128 4425 
Q 3525 4100 3525 3541 
Q 3525 3141 3298 2862 
Q 3072 2584 2669 2484 
Q 3125 2378 3379 2068 
Q 3634 1759 3634 1313 
Q 3634 634 3220 271 
Q 2806 -91 2034 -91 
Q 1263 -91 848 271 
Q 434 634 434 1313 
Q 434 1759 690 2068 
Q 947 2378 1403 2484 
z
M 1172 3481 
Q 1172 3119 1398 2916 
Q 1625 2713 2034 2713 
Q 2441 2713 2670 2916 
Q 2900 3119 2900 3481 
Q 2900 3844 2670 4047 
Q 2441 4250 2034 4250 
Q 1625 4250 1398 4047 
Q 1172 3844 1172 3481 
z
" transform="scale(0.015625)"/>
       </defs>
       <use xlink:href="#DejaVuSans-38"/>
       <use xlink:href="#DejaVuSans-30" transform="translate(63.623047 0)"/>
      </g>
     </g>
    </g>
    <g id="text_13">
     <!-- PMF (kcal/mol) -->
     <g transform="translate(10.598678 209.177031) rotate(-90) scale(0.1 -0.1)">
      <defs>
       <path id="DejaVuSans-50" d="M 1259 4147 
L 1259 2394 
L 2053 2394 
Q 2494 2394 2734 2622 
Q 2975 2850 2975 3272 
Q 2975 3691 2734 3919 
Q 2494 4147 2053 4147 
L 1259 4147 
z
M 628 4666 
L 2053 4666 
Q 2838 4666 3239 4311 
Q 3641 3956 3641 3272 
Q 3641 2581 3239 2228 
Q 2838 1875 2053 1875 
L 1259 1875 
L 1259 0 
L 628 0 
L 628 4666 
z
" transform="scale(0.015625)"/>
       <path id="DejaVuSans-46" d="M 628 4666 
L 3309 4666 
L 3309 4134 
L 1259 4134 
L 1259 2759 
L 3109 2759 
L 3109 2228 
L 1259 2228 
L 1259 0 
L 628 0 
L 628 4666 
z
" transform="scale(0.015625)"/>
       <path id="DejaVuSans-6b" d="M 581 4863 
L 1159 4863 
L 1159 1991 
L 2875 3500 
L 3609 3500 
L 1753 1863 
L 3688 0 
L 2938 0 
L 1159 1709 
L 1159 0 
L 581 0 
L 581 4863 
z
" transform="scale(0.015625)"/>
       <path id="DejaVuSans-6c" d="M 603 4863 
L 1178 4863 
L 1178 0 
L 603 0 
L 603 4863 
z
" transform="scale(0.015625)"/>
       <path id="DejaVuSans-2f" d="M 1625 4666 
L 2156 4666 
L 531 -594 
L 0 -594 
L 1625 4666 
z
" transform="scale(0.015625)"/>
       <path id="DejaVuSans-6f" d="M 1959 3097 
Q 1497 3097 1228 2736 
Q 959 2375 959 1747 
Q 959 1119 1226 758 
Q 1494 397 1959 397 
Q 2419 397 2687 759 
Q 2956 1122 2956 1747 
Q 2956 2369 2687 2733 
Q 2419 3097 1959 3097 
z
M 1959 3584 
Q 2709 3584 3137 3096 
Q 3566 2609 3566 1747 
Q 3566 888 3137 398 
Q 2709 -91 1959 -91 
Q 1206 -91 779 398 
Q 353 888 353 1747 
Q 353 2609 779 3096 
Q 1206 3584 1959 3584 
z
" transform="scale(0.015625)"/>
      </defs>
      <use xlink:href="#DejaVuSans-50"/>
      <use xlink:href="#DejaVuSans-4d" transform="translate(60.302734 0)"/>
      <use xlink:href="#DejaVuSans-46" transform="translate(146.582031 0)"/>
      <use xlink:href="#DejaVuSans-20" transform="translate(204.101562 0)"/>
      <use xlink:href="#DejaVuSans-28" transform="translate(235.888672 0)"/>
      <use xlink:href="#DejaVuSans-6b" transform="translate(274.902344 0)"/>
      <use xlink:href="#DejaVuSans-63" transform="translate(332.8125 0)"/>
      <use xlink:href="#DejaVuSans-61" transform="translate(387.792969 0)"/>
      <use xlink:href="#DejaVuSans-6c" transform="translate(449.072266 0)"/>
      <use xlink:href="#DejaVuSans-2f" transform="translate(476.855469 0)"/>
      <use xlink:href="#DejaVuSans-6d" transform="translate(510.546875 0)"/>
      <use xlink:href="#DejaVuSans-6f" transform="translate(607.958984 0)"/>
      <use xlink:href="#DejaVuSans-6c" transform="translate(669.140625 0)"/>
      <use xlink:href="#DejaVuSans-29" transform="translate(696.923828 0)"/>
     </g>
    </g>
   </g>
   <g id="line2d_23">
    <path d="M 60.79411 37.694124 
L 63.245441 61.00932 
L 65.696773 82.61534 
L 68.148104 102.625151 
L 70.599435 121.144568 
L 73.050766 138.272696 
L 75.502097 154.102347 
L 77.953428 168.720433 
L 80.40476 182.208331 
L 82.856091 194.642229 
L 85.307422 206.093447 
L 87.758753 216.628744 
L 90.210084 226.310598 
L 92.661416 235.197476 
L 95.112747 243.344086 
L 97.564078 250.801609 
L 100.015409 257.617921 
L 102.46674 263.837801 
L 104.918071 269.503122 
L 107.369403 274.653039 
L 109.820734 279.324153 
L 112.272065 283.550679 
L 114.723396 287.36459 
L 117.174727 290.79576 
L 119.626059 293.8721 
L 122.07739 296.619678 
L 124.528721 299.062835 
L 126.980052 301.224299 
L 129.431383 303.125285 
L 131.882714 304.785588 
L 134.334046 306.223678 
L 136.785377 307.456783 
L 139.236708 308.500968 
L 141.688039 309.371206 
L 144.13937 310.081456 
L 146.590701 310.64472 
L 149.042033 311.073109 
L 151.493364 311.377897 
L 156.396026 311.657923 
L 161.298689 311.560266 
L 166.201351 311.150151 
L 171.104013 310.483843 
L 176.006676 309.609781 
L 183.360669 307.99848 
L 190.714663 306.127826 
L 200.519987 303.384148 
L 220.130637 297.569996 
L 256.900605 286.505199 
L 269.15726 282.477912 
L 291.219241 275.024169 
L 298.573235 272.897095 
L 303.475897 271.705883 
L 308.378559 270.73615 
L 313.281222 270.006679 
L 318.183884 269.519179 
L 323.086546 269.25783 
L 327.989209 269.191311 
L 335.343202 269.361631 
L 364.759176 270.528994 
L 374.564501 270.51233 
L 386.821157 270.235742 
L 435.847781 268.834658 
L 460.361092 268.465279 
L 492.228398 268.215517 
L 541.255021 268.07481 
L 548.609015 268.065709 
L 548.609015 268.065709 
" clip-path="url(#pb6dc5ad2fd)" style="fill: none; stroke: #0b3c5d; stroke-width: 2.2; stroke-linecap: square"/>
   </g>
   <g id="patch_3">
    <path d="M 36.403365 326.64351 
L 36.403365 18.118365 
" style="fill: none; stroke: #000000; stroke-width: 0.8; stroke-linejoin: miter; stroke-linecap: square"/>
   </g>
   <g id="patch_4">
    <path d="M 572.99976 326.64351 
L 572.99976 18.118365 
" style="fill: none; stroke: #000000; stroke-width: 0.8; stroke-linejoin: miter; stroke-linecap: square"/>
   </g>
   <g id="patch_5">
    <path d="M 36.403365 326.64351 
L 572.99976 326.64351 
" style="fill: none; stroke: #000000; stroke-width: 0.8; stroke-linejoin: miter; stroke-linecap: square"/>
   </g>
   <g id="patch_6">
    <path d="M 36.403365 18.118365 
L 572.99976 18.118365 
" style="fill: none; stroke: #000000; stroke-width: 0.8; stroke-linejoin: miter; stroke-linecap: square"/>
   </g>
   <g id="PathCollection_1">
    <defs>
     <path id="m5fe9d9bf1b" d="M 0 2.95804 
C 0.784481 2.95804 1.536938 2.646362 2.09165 2.09165 
C 2.646362 1.536938 2.95804 0.784481 2.95804 0 
C 2.95804 -0.784481 2.646362 -1.536938 2.09165 -2.09165 
C 1.536938 -2.646362 0.784481 -2.95804 0 -2.95804 
C -0.784481 -2.95804 -1.536938 -2.646362 -2.09165 -2.09165 
C -2.646362 -1.536938 -2.95804 -0.784481 -2.95804 0 
C -2.95804 0.784481 -2.646362 1.536938 -2.09165 2.09165 
C -1.536938 2.646362 -0.784481 2.95804 0 2.95804 
z
" style="stroke: #d94f04"/>
    </defs>
    <g clip-path="url(#pb6dc5ad2fd)">
     <use xlink:href="#m5fe9d9bf1b" x="156.396026" y="311.657923" style="fill: #d94f04; stroke: #d94f04"/>
    </g>
   </g>
   <g id="patch_7">
    <path d="M 195.664459 304.379249 
Q 177.015309 307.835997 159.465468 311.088981 
" style="fill: none; stroke: #555555; stroke-linecap: round"/>
    <path d="M 163.76298 312.326474 
L 159.465468 311.088981 
L 163.03397 308.393467 
" style="fill: none; stroke: #555555; stroke-linecap: round"/>
   </g>
   <g id="text_14">
    <!-- ΔG_bind ≈ -14.72 kcal/mol -->
    <g style="fill: #222222" transform="translate(168.396026 299.657923) scale(0.1 -0.1)">
     <defs>
      <path id="DejaVuSans-394" d="M 2188 4044 
L 906 525 
L 3472 525 
L 2188 4044 
z
M 50 0 
L 1831 4666 
L 2547 4666 
L 4325 0 
L 50 0 
z
" transform="scale(0.015625)"/>
      <path id="DejaVuSans-47" d="M 3809 666 
L 3809 1919 
L 2778 1919 
L 2778 2438 
L 4434 2438 
L 4434 434 
Q 4069 175 3628 42 
Q 3188 -91 2688 -91 
Q 1594 -91 976 548 
Q 359 1188 359 2328 
Q 359 3472 976 4111 
Q 1594 4750 2688 4750 
Q 3144 4750 3555 4637 
Q 3966 4525 4313 4306 
L 4313 3634 
Q 3963 3931 3569 4081 
Q 3175 4231 2741 4231 
Q 1884 4231 1454 3753 
Q 1025 3275 1025 2328 
Q 1025 1384 1454 906 
Q 1884 428 2741 428 
Q 3075 428 3337 486 
Q 3600 544 3809 666 
z
" transform="scale(0.015625)"/>
      <path id="DejaVuSans-5f" d="M 3263 -1063 
L 3263 -1509 
L -63 -1509 
L -63 -1063 
L 3263 -1063 
z
" transform="scale(0.015625)"/>
      <path id="DejaVuSans-62" d="M 3116 1747 
Q 3116 2381 2855 2742 
Q 2594 3103 2138 3103 
Q 1681 3103 1420 2742 
Q 1159 2381 1159 1747 
Q 1159 1113 1420 752 
Q 1681 391 2138 391 
Q 2594 391 2855 752 
Q 3116 1113 3116 1747 
z
M 1159 2969 
Q 1341 3281 1617 3432 
Q 1894 3584 2278 3584 
Q 2916 3584 3314 3078 
Q 3713 2572 3713 1747 
Q 3713 922 3314 415 
Q 2916 -91 2278 -91 
Q 1894 -91 1617 61 
Q 1341 213 1159 525 
L 1159 0 
L 581 0 
L 581 4863 
L 1159 4863 
L 1159 2969 
z
" transform="scale(0.015625)"/>
      <path id="DejaVuSans-64" d="M 2906 2969 
L 2906 4863 
L 3481 4863 
L 3481 0 
L 2906 0 
L 2906 525 
Q 2725 213 2448 61 
Q 2172 -91 1784 -91 
Q 1150 -91 751 415 
Q 353 922 353 1747 
Q 353 2572 751 3078 
Q 1150 3584 1784 3584 
Q 2172 3584 2448 3432 
Q 2725 3281 2906 2969 
z
M 947 1747 
Q 947 1113 1208 752 
Q 1469 391 1925 391 
Q 2381 391 2643 752 
Q 2906 1113 2906 1747 
Q 2906 2381 2643 2742 
Q 2381 3103 1925 3103 
Q 1469 3103 1208 2742 
Q 947 2381 947 1747 
z
" transform="scale(0.015625)"/>
      <path id="DejaVuSans-2248" d="M 4684 1947 
L 4684 1388 
Q 4356 1144 4076 1036 
Q 3797 928 3494 928 
Q 3150 928 2694 1113 
Q 2663 1125 2641 1134 
Q 2622 1141 2575 1159 
Q 2091 1350 1797 1350 
Q 1522 1350 1253 1231 
Q 984 1113 678 850 
L 678 1409 
Q 1006 1653 1286 1761 
Q 1566 1869 1869 1869 
Q 2213 1869 2672 1684 
Q 2706 1669 2722 1663 
Q 2741 1656 2788 1638 
Q 3272 1447 3566 1447 
Q 3834 1447 4098 1564 
Q 4363 1681 4684 1947 
z
M 4684 3163 
L 4684 2606 
Q 4356 2359 4076 2251 
Q 3797 2144 3494 2144 
Q 3150 2144 2694 2328 
Q 2663 2341 2641 2350 
Q 2622 2356 2575 2375 
Q 2091 2566 1797 2566 
Q 1522 2566 1253 2447 
Q 984 2328 678 2069 
L 678 2625 
Q 1006 2869 1286 2976 
Q 1566 3084 1869 3084 
Q 2213 3084 2672 2900 
Q 2703 2888 2719 2881 
Q 2741 2872 2788 2853 
Q 3272 2663 3566 2663 
Q 3834 2663 4098 2780 
Q 4363 2897 4684 3163 
z
" transform="scale(0.015625)"/>
      <path id="DejaVuSans-2d" d="M 313 2009 
L 1997 2009 
L 1997 1497 
L 313 1497 
L 313 2009 
z
" transform="scale(0.015625)"/>
      <path id="DejaVuSans-37" d="M 525 4666 
L 3525 4666 
L 3525 4397 
L 1831 0 
L 1172 0 
L 2766 4134 
L 525 4134 
L 525 4666 
z
" transform="scale(0.015625)"/>
     </defs>
     <use xlink:href="#DejaVuSans-394"/>
     <use xlink:href="#DejaVuSans-47" transform="translate(68.408203 0)"/>
     <use xlink:href="#DejaVuSans-5f" transform="translate(145.898438 0)"/>
     <use xlink:href="#DejaVuSans-62" transform="translate(195.898438 0)"/>
     <use xlink:href="#DejaVuSans-69" transform="translate(259.375 0)"/>
     <use xlink:href="#DejaVuSans-6e" transform="translate(287.158203 0)"/>
     <use xlink:href="#DejaVuSans-64" transform="translate(350.537109 0)"/>
     <use xlink:href="#DejaVuSans-20" transform="translate(414.013672 0)"/>
     <use xlink:href="#DejaVuSans-2248" transform="translate(445.800781 0)"/>
     <use xlink:href="#DejaVuSans-20" transform="translate(529.589844 0)"/>
     <use xlink:href="#DejaVuSans-2d" transform="translate(561.376953 0)"/>
     <use xlink:href="#DejaVuSans-31" transform="translate(597.460938 0)"/>
     <use xlink:href="#DejaVuSans-34" transform="translate(661.083984 0)"/>
     <use xlink:href="#DejaVuSans-2e" transform="translate(724.707031 0)"/>
     <use xlink:href="#DejaVuSans-37" transform="translate(756.494141 0)"/>
     <use xlink:href="#DejaVuSans-32" transform="translate(820.117188 0)"/>
     <use xlink:href="#DejaVuSans-20" transform="translate(883.740234 0)"/>
     <use xlink:href="#DejaVuSans-6b" transform="translate(915.527344 0)"/>
     <use xlink:href="#DejaVuSans-63" transform="translate(973.4375 0)"/>
     <use xlink:href="#DejaVuSans-61" transform="translate(1028.417969 0)"/>
     <use xlink:href="#DejaVuSans-6c" transform="translate(1089.697266 0)"/>
     <use xlink:href="#DejaVuSans-2f" transform="translate(1117.480469 0)"/>
     <use xlink:href="#DejaVuSans-6d" transform="translate(1151.171875 0)"/>
     <use xlink:href="#DejaVuSans-6f" transform="translate(1248.583984 0)"/>
     <use xlink:href="#DejaVuSans-6c" transform="translate(1309.765625 0)"/>
    </g>
   </g>
   <g id="text_15">
    <!-- Potential of Mean Force -->
    <g transform="translate(234.34125 12.118365) scale(0.12 -0.12)">
     <defs>
      <path id="DejaVuSans-66" d="M 2375 4863 
L 2375 4384 
L 1825 4384 
Q 1516 4384 1395 4259 
Q 1275 4134 1275 3809 
L 1275 3500 
L 2222 3500 
L 2222 3053 
L 1275 3053 
L 1275 0 
L 697 0 
L 697 3053 
L 147 3053 
L 147 3500 
L 697 3500 
L 697 3744 
Q 697 4328 969 4595 
Q 1241 4863 1831 4863 
L 2375 4863 
z
" transform="scale(0.015625)"/>
      <path id="DejaVuSans-72" d="M 2631 2963 
Q 2534 3019 2420 3045 
Q 2306 3072 2169 3072 
Q 1681 3072 1420 2755 
Q 1159 2438 1159 1844 
L 1159 0 
L 581 0 
L 581 3500 
L 1159 3500 
L 1159 2956 
Q 1341 3275 1631 3429 
Q 1922 3584 2338 3584 
Q 2397 3584 2469 3576 
Q 2541 3569 2628 3553 
L 2631 2963 
z
" transform="scale(0.015625)"/>
     </defs>
     <use xlink:href="#DejaVuSans-50"/>
     <use xlink:href="#DejaVuSans-6f" transform="translate(56.677734 0)"/>
     <use xlink:href="#DejaVuSans-74" transform="translate(117.859375 0)"/>
     <use xlink:href="#DejaVuSans-65" transform="translate(157.068359 0)"/>
     <use xlink:href="#DejaVuSans-6e" transform="translate(218.591797 0)"/>
     <use xlink:href="#DejaVuSans-74" transform="translate(281.970703 0)"/>
     <use xlink:href="#DejaVuSans-69" transform="translate(321.179688 0)"/>
     <use xlink:href="#DejaVuSans-61" transform="translate(348.962891 0)"/>
     <use xlink:href="#DejaVuSans-6c" transform="translate(410.242188 0)"/>
     <use xlink:href="#DejaVuSans-20" transform="translate(438.025391 0)"/>
     <use xlink:href="#DejaVuSans-6f" transform="translate(469.8125 0)"/>
     <use xlink:href="#DejaVuSans-66" transform="translate(530.994141 0)"/>
     <use xlink:href="#DejaVuSans-20" transform="translate(566.199219 0)"/>
     <use xlink:href="#DejaVuSans-4d" transform="translate(597.986328 0)"/>
     <use xlink:href="#DejaVuSans-65" transform="translate(684.265625 0)"/>
     <use xlink:href="#DejaVuSans-61" transform="translate(745.789062 0)"/>
     <use xlink:href="#DejaVuSans-6e" transform="translate(807.068359 0)"/>
     <use xlink:href="#DejaVuSans-20" transform="translate(870.447266 0)"/>
     <use xlink:href="#DejaVuSans-46" transform="translate(902.234375 0)"/>
     <use xlink:href="#DejaVuSans-6f" transform="translate(956.128906 0)"/>
     <use xlink:href="#DejaVuSans-72" transform="translate(1017.310547 0)"/>
     <use xlink:href="#DejaVuSans-63" transform="translate(1056.173828 0)"/>
     <use xlink:href="#DejaVuSans-65" transform="translate(1111.154297 0)"/>
    </g>
   </g>
  </g>
 </g>
 <defs>
  <clipPath id="pb6dc5ad2fd">
   <rect x="36.403365" y="18.118365" width="536.596395" height="308.525145"/>
  </clipPath>
 </defs>
</svg>
